<svg width="50" height="45" viewBox="0 0 50 45" fill="none" xmlns="http://www.w3.org/2000/svg">
<path d="M43.8629 16.9177C43.8056 16.6599 43.6624 16.4594 43.4332 16.3162C43.204 16.1729 42.9605 16.13 42.7027 16.1873C42.4449 16.2732 42.2516 16.4236 42.1227 16.6384C41.9937 16.8533 41.9579 17.0896 42.0152 17.3474V17.3904C42.0725 17.6195 42.1871 17.7986 42.359 17.9275C42.5309 18.0564 42.7314 18.1208 42.9605 18.1208C42.9892 18.1208 43.025 18.1208 43.068 18.1208C43.1109 18.1208 43.1467 18.1065 43.1754 18.0779C43.4332 18.0206 43.6337 17.8774 43.7769 17.6482C43.9202 17.419 43.9488 17.1755 43.8629 16.9177ZM18.4254 28.906C17.2509 28.1899 16.3271 27.2374 15.6539 26.0486C14.9807 24.8598 14.6441 23.5636 14.6441 22.1599C14.6441 21.7302 14.6728 21.3077 14.7301 20.8923C14.7874 20.477 14.8876 20.0544 15.0309 19.6248C15.1168 19.3956 15.1025 19.1593 14.9879 18.9158C14.8733 18.6723 14.6871 18.5076 14.4293 18.4216C14.1715 18.3357 13.928 18.35 13.6988 18.4646C13.4697 18.5792 13.3121 18.7654 13.2262 19.0232C13.0543 19.5388 12.9254 20.0544 12.8394 20.5701C12.7535 21.0857 12.7105 21.6156 12.7105 22.1599C12.7105 23.8787 13.1259 25.4828 13.9566 26.9724C14.7874 28.462 15.9475 29.6508 17.4371 30.5388C17.523 30.5961 17.609 30.6391 17.6949 30.6677C17.7809 30.6964 17.8668 30.7107 17.9527 30.7107C18.1246 30.7107 18.2822 30.6677 18.4254 30.5818C18.5686 30.4958 18.6832 30.3813 18.7691 30.238C18.9124 30.0089 18.9482 29.7654 18.8766 29.5076C18.8049 29.2498 18.6546 29.0492 18.4254 28.906ZM29.2105 15.0271C28.2939 14.1677 27.2626 13.5089 26.1168 13.0505C24.971 12.5922 23.7678 12.363 22.5074 12.363C21.9059 12.363 21.3258 12.4132 20.7672 12.5134C20.2086 12.6137 19.6572 12.7641 19.1129 12.9646C18.8551 13.0505 18.6689 13.2153 18.5543 13.4587C18.4397 13.7022 18.4254 13.9529 18.5113 14.2107C18.6259 14.4685 18.7978 14.6475 19.0269 14.7478C19.2561 14.8481 19.4996 14.8552 19.7574 14.7693C20.1871 14.5974 20.6383 14.4757 21.1109 14.4041C21.5836 14.3324 22.0491 14.2966 22.5074 14.2966C23.51 14.2966 24.4768 14.4757 25.4078 14.8337C26.3388 15.1918 27.1767 15.7146 27.9215 16.4021C28.0074 16.5167 28.1077 16.5955 28.2223 16.6384C28.3368 16.6814 28.4514 16.7029 28.566 16.7029C28.6806 16.7029 28.8023 16.6742 28.9312 16.6169C29.0602 16.5597 29.1676 16.488 29.2535 16.4021C29.454 16.2016 29.5471 15.9653 29.5328 15.6931C29.5185 15.421 29.4111 15.199 29.2105 15.0271ZM48.7184 22.4607H41.4996V20.4412C41.4996 19.9828 41.3277 19.5818 40.984 19.238C40.6402 18.8943 40.2249 18.7224 39.7379 18.7224H38.4488C38.1337 17.1755 37.6038 15.7146 36.859 14.3396C36.1142 12.9646 35.1832 11.7185 34.066 10.6013C33.1207 9.65601 32.0751 8.8396 30.9293 8.1521C29.8121 7.49324 28.6305 6.97046 27.3844 6.58374C26.1383 6.19702 24.8564 5.96069 23.5387 5.87476C22.221 5.78882 20.9032 5.86043 19.5855 6.0896C19.3277 6.14689 19.12 6.28296 18.9625 6.4978C18.8049 6.71265 18.7548 6.94897 18.8121 7.20679C18.8407 7.4646 18.9697 7.67228 19.1988 7.82983C19.428 7.98738 19.6715 8.03752 19.9293 7.98022C21.0751 7.77971 22.2353 7.70809 23.4098 7.76538C24.5842 7.85132 25.7157 8.06616 26.8043 8.40991C27.8928 8.75366 28.9384 9.22632 29.941 9.82788C30.9436 10.4294 31.8603 11.1456 32.691 11.9763C33.6363 12.9216 34.4312 13.96 35.0758 15.0916C35.7203 16.2231 36.2001 17.4333 36.5152 18.7224H31.273C30.7861 18.7224 30.3707 18.8943 30.0269 19.238C29.6832 19.5818 29.5113 19.9828 29.5113 20.4412V22.4607H22.2926C22.0061 22.4607 21.7698 22.5538 21.5836 22.74C21.3974 22.9262 21.3043 23.1482 21.3043 23.406V29.2927C21.3043 29.7511 21.3902 30.1807 21.5621 30.5818C21.734 30.9828 21.9631 31.3409 22.2496 31.656V36.5544C20.359 36.5258 18.5615 36.1534 16.857 35.4373C15.1526 34.7211 13.6415 33.6899 12.3238 32.3435C11.4644 31.4841 10.734 30.5388 10.1324 29.5076C9.53085 28.505 9.0582 27.4379 8.71445 26.3064C8.3707 25.1749 8.17018 24.0219 8.11288 22.8474C8.05559 21.6443 8.14153 20.4555 8.3707 19.281C8.42799 19.0232 8.38502 18.7797 8.24179 18.5505C8.09856 18.3214 7.89804 18.1781 7.64023 18.1208C7.38242 18.0922 7.13893 18.1495 6.90976 18.2927C6.68059 18.436 6.55169 18.6365 6.52304 18.8943C6.23658 20.2406 6.122 21.587 6.17929 22.9333C6.26523 24.2797 6.49439 25.5903 6.86679 26.865C7.23919 28.1397 7.76913 29.35 8.45663 30.4958C9.14413 31.6703 9.97486 32.7445 10.9488 33.7185C12.4384 35.2081 14.1643 36.3682 16.1266 37.199C18.0888 38.0297 20.1298 38.4594 22.2496 38.488V41.9685C22.2496 42.0258 22.2496 42.0759 22.2496 42.1189C22.2496 42.1619 22.2496 42.1977 22.2496 42.2263C19.4996 42.1977 16.9215 41.6534 14.5152 40.5935C12.109 39.5336 10.0107 38.0942 8.22031 36.2751C6.42994 34.4561 5.01913 32.3292 3.98788 29.8943C2.95663 27.488 2.44101 24.9099 2.44101 22.1599C2.44101 20.4412 2.65585 18.7582 3.08554 17.1111C3.51523 15.4639 4.14544 13.8956 4.97617 12.406L8.19882 15.6287C8.28476 15.7432 8.38502 15.822 8.4996 15.865C8.61419 15.908 8.74309 15.9294 8.88632 15.9294H14.9449L20.8316 21.8591C20.9462 21.9451 21.0608 22.0095 21.1754 22.0525C21.29 22.0955 21.4046 22.1169 21.5191 22.1169C21.6624 22.1169 21.7913 22.0955 21.9059 22.0525C22.0204 22.0095 22.1207 21.9451 22.2066 21.8591C22.4072 21.6586 22.5074 21.4294 22.5074 21.1716C22.5074 20.9138 22.4072 20.6847 22.2066 20.4841L16.2769 14.5544V8.53882C16.2769 8.39559 16.2555 8.26668 16.2125 8.1521C16.1695 8.03752 16.1051 7.93726 16.0191 7.85132L12.7535 4.58569C14.2431 3.78361 15.8115 3.16772 17.4586 2.73804C19.1057 2.30835 20.7887 2.09351 22.5074 2.09351C24.4553 2.09351 26.346 2.36564 28.1793 2.90991C30.0126 3.45418 31.7242 4.23478 33.3141 5.25171C34.9039 6.26863 36.329 7.49324 37.5894 8.92554C38.8785 10.3578 39.9241 11.962 40.7262 13.738C40.8121 13.9099 40.9338 14.046 41.0914 14.1462C41.249 14.2465 41.4137 14.2966 41.5855 14.2966C41.6715 14.2966 41.7503 14.2895 41.8219 14.2751C41.8935 14.2608 41.9579 14.2393 42.0152 14.2107C42.2444 14.0961 42.4091 13.9099 42.5094 13.6521C42.6096 13.3943 42.6025 13.1508 42.4879 12.9216C41.5999 11.031 40.4827 9.3051 39.1363 7.7439C37.79 6.1827 36.2431 4.84351 34.4957 3.72632C32.7197 2.55184 30.8147 1.66382 28.7809 1.06226C26.747 0.460693 24.6559 0.159912 22.5074 0.159912C20.5309 0.159912 18.5973 0.417725 16.7066 0.93335C14.816 1.44897 13.0256 2.20809 11.3355 3.21069L8.58554 0.460693C8.44231 0.317463 8.2776 0.224365 8.0914 0.181396C7.9052 0.138428 7.71184 0.159912 7.51132 0.24585C7.33945 0.303143 7.20338 0.417725 7.10312 0.5896C7.00286 0.761475 6.95273 0.93335 6.95273 1.10522V6.56226H1.4957C1.29518 6.56226 1.11614 6.61955 0.958588 6.73413C0.801036 6.84871 0.679291 6.99194 0.593353 7.16382C0.507416 7.33569 0.485931 7.51473 0.5289 7.70093C0.571869 7.88713 0.664968 8.05184 0.808197 8.19507L3.5582 10.988C2.55559 12.6781 1.79648 14.4685 1.28085 16.3591C0.765228 18.2498 0.507416 20.1833 0.507416 22.1599C0.507416 23.6208 0.650645 25.0675 0.937103 26.4998C1.22356 27.9034 1.63893 29.2641 2.1832 30.5818C2.72747 31.8995 3.40065 33.1599 4.20273 34.363C5.00481 35.5662 5.92148 36.6833 6.95273 37.7146C7.98398 38.7458 9.10117 39.6625 10.3043 40.4646C11.5074 41.2667 12.7678 41.9399 14.0855 42.4841C15.4032 43.0284 16.7639 43.4438 18.1676 43.7302C19.5999 44.0167 21.0465 44.1599 22.5074 44.1599H46.5699C47.1715 44.1599 47.6871 43.9451 48.1168 43.5154C48.5465 43.0857 48.7613 42.5701 48.7613 41.9685V31.656C49.0764 31.3123 49.3128 30.9399 49.4703 30.5388C49.6279 30.1378 49.7066 29.7224 49.7066 29.2927V23.406C49.7066 23.1482 49.6135 22.9262 49.4273 22.74C49.2411 22.5538 49.0048 22.4607 48.7184 22.4607ZM8.84335 3.42554L14.3434 8.92554V12.6638L8.84335 7.12085V3.42554ZM7.51132 8.49585L13.0113 13.9958H9.27304L3.77304 8.49585H7.51132ZM31.4449 20.613H39.609V22.4607H31.4449V20.613ZM46.8707 37.6287H40.5543C40.2965 37.6287 40.0745 37.7218 39.8883 37.908C39.7021 38.0942 39.609 38.3162 39.609 38.574C39.609 38.8604 39.7021 39.0968 39.8883 39.283C40.0745 39.4692 40.2965 39.5623 40.5543 39.5623H46.8707V41.9685C46.8707 42.0544 46.8421 42.1189 46.7848 42.1619C46.7275 42.2048 46.6559 42.2263 46.5699 42.2263H25.6012H24.398C24.3407 42.2263 24.2835 42.2048 24.2262 42.1619C24.1689 42.1189 24.1402 42.0544 24.1402 41.9685V32.6873C24.2548 32.6873 24.3551 32.6944 24.441 32.7087C24.5269 32.7231 24.6272 32.7302 24.7418 32.7302H32.648C32.734 33.4464 33.0491 34.0479 33.5934 34.5349C34.1376 35.0219 34.7822 35.2654 35.5269 35.2654C36.2431 35.2654 36.8733 35.0219 37.4176 34.5349C37.9618 34.0479 38.2769 33.4464 38.3629 32.7302H46.2691C46.3837 32.7302 46.484 32.7231 46.5699 32.7087C46.6559 32.6944 46.7561 32.6873 46.8707 32.6873V37.6287ZM34.5387 32.3865V30.7107H36.4723V32.3865C36.4723 32.6443 36.3792 32.8663 36.193 33.0525C36.0068 33.2387 35.7848 33.3318 35.5269 33.3318C35.2405 33.3318 35.0042 33.2387 34.818 33.0525C34.6318 32.8663 34.5387 32.6443 34.5387 32.3865ZM47.773 29.2927C47.773 29.4932 47.7372 29.6866 47.6656 29.8728C47.594 30.059 47.4866 30.2237 47.3434 30.3669C47.2001 30.5102 47.0354 30.6176 46.8492 30.6892C46.663 30.7608 46.4697 30.7966 46.2691 30.7966H38.3629V29.9373C38.3629 29.5935 38.2555 29.3142 38.0406 29.0994C37.8258 28.8845 37.5608 28.7771 37.2457 28.7771H33.7652C33.4501 28.7771 33.1852 28.8845 32.9703 29.0994C32.7555 29.3142 32.648 29.5935 32.648 29.9373V30.7966H24.7418C24.3121 30.7966 23.954 30.6534 23.6676 30.3669C23.3811 30.0805 23.2379 29.7224 23.2379 29.2927V24.3513H47.773V29.2927ZM36.5152 37.9294C36.4293 37.8149 36.329 37.7361 36.2144 37.6931C36.0999 37.6501 35.971 37.6287 35.8277 37.6287C35.7131 37.6287 35.5986 37.6501 35.484 37.6931C35.3694 37.7361 35.2691 37.8149 35.1832 37.9294C35.0686 38.0154 34.9898 38.1156 34.9469 38.2302C34.9039 38.3448 34.8824 38.4594 34.8824 38.574C34.8824 38.7172 34.9039 38.8461 34.9469 38.9607C34.9898 39.0753 35.0686 39.1755 35.1832 39.2615C35.2691 39.3474 35.3694 39.419 35.484 39.4763C35.5986 39.5336 35.7131 39.5623 35.8277 39.5623C35.971 39.5623 36.0999 39.5336 36.2144 39.4763C36.329 39.419 36.4293 39.3474 36.5152 39.2615C36.6012 39.1755 36.6728 39.0753 36.7301 38.9607C36.7874 38.8461 36.816 38.7172 36.816 38.574C36.816 38.4594 36.7874 38.3448 36.7301 38.2302C36.6728 38.1156 36.6012 38.0154 36.5152 37.9294Z" fill="#072E33"/>
</svg>
