<svg width="45" height="44" viewBox="0 0 45 44" fill="none" xmlns="http://www.w3.org/2000/svg">
<path d="M35.1567 13.3467C36.4278 13.3467 37.5278 12.8578 38.4567 11.88C39.3856 10.9022 39.85 9.75333 39.85 8.43333C39.85 7.11333 39.3856 5.98889 38.4567 5.06C37.5278 4.13111 36.4033 3.66667 35.0833 3.66667C33.7633 3.66667 32.6389 4.13111 31.71 5.06C30.7811 5.98889 30.3167 7.11333 30.3167 8.43333C30.3167 9.75333 30.7811 10.9022 31.71 11.88C32.6389 12.8578 33.7878 13.3467 35.1567 13.3467ZM35.1567 4.98667C36.0367 4.98667 36.8189 5.32889 37.5033 6.01334C38.1878 6.69778 38.53 7.52889 38.53 8.50667C38.53 9.48445 38.1878 10.2911 37.5033 10.9267C36.8189 11.5622 36.0122 11.88 35.0833 11.88C34.1544 11.88 33.3478 11.5622 32.6633 10.9267C31.9789 10.2911 31.6367 9.48445 31.6367 8.50667C31.6367 7.52889 31.9789 6.69778 32.6633 6.01334C33.3478 5.32889 34.1789 4.98667 35.1567 4.98667ZM40.29 14.08C40.1922 14.08 40.0456 14.1289 39.85 14.2267C36.9167 16.28 33.7878 16.28 30.4633 14.2267L30.0233 14.08C28.9478 14.08 28.0189 14.4711 27.2367 15.2533C26.4544 16.0356 26.0633 16.9644 26.0633 18.04V25.52C26.0633 26.2044 26.3078 26.7667 26.7967 27.2067C27.2856 27.6467 27.8233 27.8667 28.41 27.8667C28.7033 27.8667 29.0456 27.7689 29.4367 27.5733V41.36C29.4367 42.0444 29.6811 42.6311 30.17 43.12C30.6589 43.6089 31.2211 43.8289 31.8567 43.78C32.4922 43.7311 33.0056 43.4622 33.3967 42.9733C33.7878 42.4844 33.9833 41.9467 33.9833 41.36V32.12C33.9833 31.7289 34.1056 31.4356 34.35 31.24C34.5944 31.0444 34.8633 30.9467 35.1567 30.9467C35.45 30.9467 35.7189 31.0444 35.9633 31.24C36.2078 31.4356 36.33 31.7289 36.33 32.12V41.36C36.33 42.0444 36.5744 42.6067 37.0633 43.0467C37.5522 43.4867 38.09 43.7067 38.6767 43.7067H38.8233C39.41 43.7067 39.9233 43.4622 40.3633 42.9733C40.8033 42.4844 41.0233 41.9467 41.0233 41.36V27.5733C41.4144 27.7689 41.8544 27.8422 42.3433 27.7933C42.8322 27.7444 43.2722 27.5 43.6633 27.06C44.0544 26.62 44.25 26.0578 44.25 25.3733V18.04C44.25 16.9644 43.8589 16.0356 43.0767 15.2533C42.2944 14.4711 41.3656 14.08 40.29 14.08ZM42.93 25.3733C42.93 25.6667 42.8322 25.9111 42.6367 26.1067C42.4411 26.3022 42.2211 26.4244 41.9767 26.4733C41.7322 26.5222 41.5122 26.4489 41.3167 26.2533C41.1211 26.0578 41.0233 25.8133 41.0233 25.52V18.7733C41.0233 18.5778 40.95 18.4067 40.8033 18.26C40.6567 18.1133 40.4856 18.04 40.29 18.04C40.0944 18.04 39.9233 18.1133 39.7767 18.26C39.63 18.4067 39.5567 18.5778 39.5567 18.7733V41.36C39.5567 41.6533 39.4833 41.8978 39.3367 42.0933C39.19 42.2889 38.9944 42.3867 38.75 42.3867C38.5056 42.3867 38.2611 42.2889 38.0167 42.0933C37.7722 41.8978 37.65 41.6533 37.65 41.36V32.12C37.65 31.3378 37.4056 30.7022 36.9167 30.2133C36.4278 29.7244 35.8411 29.48 35.1567 29.48C34.4722 29.48 33.8856 29.7244 33.3967 30.2133C32.9078 30.7022 32.6633 31.3378 32.6633 32.12V41.36C32.6633 41.6533 32.5656 41.8978 32.37 42.0933C32.1744 42.2889 31.9544 42.3867 31.71 42.3867C31.4656 42.3867 31.2456 42.2889 31.05 42.0933C30.8544 41.8978 30.7567 41.6533 30.7567 41.36V18.7733C30.7567 18.5778 30.6833 18.4067 30.5367 18.26C30.39 18.1133 30.2189 18.04 30.0233 18.04C29.8278 18.04 29.6811 18.1133 29.5833 18.26C29.4856 18.4067 29.4367 18.5778 29.4367 18.7733V25.52C29.4367 25.8133 29.3389 26.0333 29.1433 26.18C28.9478 26.3267 28.7033 26.4 28.41 26.4C28.1167 26.4 27.8967 26.3267 27.75 26.18C27.6033 26.0333 27.53 25.8133 27.53 25.52V18.04C27.53 17.3556 27.75 16.7689 28.19 16.28C28.63 15.7911 29.1922 15.4978 29.8767 15.4C33.5922 17.7467 37.1122 17.7467 40.4367 15.4C41.1211 15.4978 41.7078 15.7911 42.1967 16.28C42.6856 16.7689 42.93 17.3556 42.93 18.04V25.3733ZM2.45 8.94667C2.64556 8.94667 2.79222 8.89778 2.89 8.8L4.50333 7.33334V16.28C4.50333 16.4756 4.55222 16.6467 4.65 16.7933C4.74778 16.94 4.89444 17.0133 5.09 17.0133C5.28556 17.0133 5.45667 16.94 5.60333 16.7933C5.75 16.6467 5.82333 16.4756 5.82333 16.28V7.33334L7.29 8.8C7.48556 8.89778 7.68111 8.94667 7.87667 8.94667C8.07222 8.94667 8.21889 8.89778 8.31667 8.8C8.41444 8.70222 8.46333 8.55556 8.46333 8.36C8.46333 8.16444 8.41444 7.96889 8.31667 7.77333L5.67667 5.13334L5.38333 4.98667C5.18778 4.88889 5.04111 4.88889 4.94333 4.98667L4.65 5.13334L2.01 7.77333C1.81444 7.96889 1.71667 8.16444 1.71667 8.36C1.71667 8.55556 1.79 8.70222 1.93667 8.8C2.08333 8.89778 2.25444 8.94667 2.45 8.94667ZM27.97 37.2533H25.1833V32.7067C25.1833 32.5111 25.11 32.34 24.9633 32.1933C24.8167 32.0467 24.6456 31.9733 24.45 31.9733H22.8367V27.28C22.8367 27.0844 22.7633 26.9378 22.6167 26.84C22.47 26.7422 22.2989 26.6933 22.1033 26.6933H20.49V22C20.49 21.8044 20.4411 21.6333 20.3433 21.4867C20.2456 21.34 20.0989 21.2667 19.9033 21.2667H18.1433V16.28H19.9033C20.1967 16.28 20.3922 16.1578 20.49 15.9133C20.5878 15.6689 20.5878 15.4489 20.49 15.2533L15.0633 6.74667C14.9656 6.55111 14.77 6.45333 14.4767 6.45333C14.1833 6.45333 13.9878 6.55111 13.89 6.74667L8.46333 15.2533C8.36555 15.4489 8.36555 15.6689 8.46333 15.9133C8.56111 16.1578 8.75667 16.28 9.05 16.28H10.81V21.2667H9.05C8.85444 21.2667 8.68333 21.34 8.53667 21.4867C8.39 21.6333 8.31667 21.8044 8.31667 22V26.6933H6.70333C6.50778 26.6933 6.36111 26.7422 6.26333 26.84C6.16556 26.9378 6.11667 27.0844 6.11667 27.28V31.9733H4.50333C4.30778 31.9733 4.13667 32.0467 3.99 32.1933C3.84333 32.34 3.77 32.5111 3.77 32.7067V37.2533H0.983333C0.787778 37.2533 0.616667 37.3267 0.47 37.4733C0.323333 37.62 0.25 37.7911 0.25 37.9867V43.4133C0.25 43.5111 0.323333 43.6333 0.47 43.78C0.616667 43.9267 0.787778 44 0.983333 44H27.97C28.1656 44 28.3367 43.9267 28.4833 43.78C28.63 43.6333 28.7033 43.5111 28.7033 43.4133V37.9867C28.7033 37.7911 28.63 37.62 28.4833 37.4733C28.3367 37.3267 28.1656 37.2533 27.97 37.2533ZM14.4767 8.36L18.5833 14.96H10.37L14.4767 8.36ZM16.8233 16.28V21.2667H12.13V16.28H16.8233ZM9.78333 22.7333H19.17V26.6933H9.78333V22.7333ZM7.43667 28.0133H21.5167V31.9733H7.43667V28.0133ZM5.09 33.2933H23.7167V37.2533H5.09V33.2933ZM27.3833 42.68H1.57V38.72H27.3833V42.68Z" fill="#072E33"/>
</svg>
